<svg id="chatting" xmlns="http://www.w3.org/2000/svg" width="49.06" height="43" viewBox="0 0 49.06 43">
  <path id="Path_3643" data-name="Path 3643" d="M33.923,31.622H5.548A5.554,5.554,0,0,0,0,37.17V62.035a1.438,1.438,0,0,0,2.272,1.17l7.9-5.638a3.868,3.868,0,0,1,2.258-.722H29.813A5.554,5.554,0,0,0,35.361,51.3V33.059A1.438,1.438,0,0,0,33.923,31.622ZM26.942,49.034H10.335a1.437,1.437,0,1,1,0-2.875H26.942a1.437,1.437,0,1,1,0,2.875Zm0-6.707H10.335a1.437,1.437,0,1,1,0-2.875H26.942a1.437,1.437,0,1,1,0,2.875Z" transform="translate(0 -31.622)" fill="#20409a"/>
  <path id="Path_3644" data-name="Path 3644" d="M178.331,153.511v24.864a1.438,1.438,0,0,1-2.272,1.17l-7.9-5.637a3.868,3.868,0,0,0-2.258-.722H148.518a5.555,5.555,0,0,1-5.548-5.549v-2.725h16.113a8.432,8.432,0,0,0,8.423-8.423v-8.527h5.277A5.555,5.555,0,0,1,178.331,153.511Z" transform="translate(-129.271 -136.814)" fill="#20409a"/>
</svg>
