<svg id="lamp" xmlns="http://www.w3.org/2000/svg" width="43" height="43" viewBox="0 0 43 43">
  <path id="Path_3645" data-name="Path 3645" d="M12.594,6.194A1.344,1.344,0,0,1,11.25,4.85V1.344a1.344,1.344,0,1,1,2.688,0V4.85A1.344,1.344,0,0,1,12.594,6.194Z" transform="translate(8.906)" fill="#7f7f7f"/>
  <path id="Path_3646" data-name="Path 3646" d="M19.165,8.463a1.345,1.345,0,0,1-.95-2.3l2.48-2.48a1.344,1.344,0,0,1,1.9,1.9l-2.48,2.48A1.348,1.348,0,0,1,19.165,8.463Z" transform="translate(14.108 2.608)" fill="#7f7f7f"/>
  <path id="Path_3647" data-name="Path 3647" d="M25.393,13.938H21.887a1.344,1.344,0,1,1,0-2.687h3.506a1.344,1.344,0,1,1,0,2.688Z" transform="translate(16.263 8.906)" fill="#7f7f7f"/>
  <path id="Path_3648" data-name="Path 3648" d="M21.644,22.989a1.333,1.333,0,0,1-.95-.394l-2.48-2.48a1.344,1.344,0,0,1,1.9-1.9l2.48,2.48a1.345,1.345,0,0,1-.951,2.3Z" transform="translate(14.108 14.108)" fill="#7f7f7f"/>
  <path id="Path_3649" data-name="Path 3649" d="M4.639,22.989a1.345,1.345,0,0,1-.95-2.3l2.48-2.48a1.344,1.344,0,0,1,1.9,1.9l-2.48,2.48A1.34,1.34,0,0,1,4.639,22.989Z" transform="translate(2.609 14.108)" fill="#7f7f7f"/>
  <path id="Path_3650" data-name="Path 3650" d="M4.85,13.938H1.344a1.344,1.344,0,1,1,0-2.687H4.85a1.344,1.344,0,1,1,0,2.688Z" transform="translate(0 8.906)" fill="#7f7f7f"/>
  <path id="Path_3651" data-name="Path 3651" d="M7.118,8.463a1.333,1.333,0,0,1-.95-.394l-2.48-2.48a1.344,1.344,0,0,1,1.9-1.9l2.48,2.48a1.345,1.345,0,0,1-.951,2.3Z" transform="translate(2.609 2.608)" fill="#7f7f7f"/>
  <path id="Path_3652" data-name="Path 3652" d="M19.75,21v2.24a3.15,3.15,0,0,1-3.135,3.135H12.135C10.63,26.375,9,25.228,9,22.72V21Z" transform="translate(7.125 16.625)" fill="#7f7f7f"/>
  <path id="Path_3653" data-name="Path 3653" d="M25.444,7.794A12.543,12.543,0,1,0,10,27.556a5.41,5.41,0,0,1,2.043,3.422V31a.3.3,0,0,1,.125-.018h10.75a.161.161,0,0,1,.09.018v-.018A5.976,5.976,0,0,1,25.3,27.395a12.549,12.549,0,0,0,.143-19.6ZM24.261,18.436a1.354,1.354,0,0,1-1.344-1.344,4.924,4.924,0,0,0-4.927-4.927,1.344,1.344,0,0,1,0-2.688,7.631,7.631,0,0,1,7.615,7.615A1.354,1.354,0,0,1,24.261,18.436Z" transform="translate(3.957 3.959)" fill="#7f7f7f"/>
  <path id="Path_3654" data-name="Path 3654" d="M8.93,19.5h.125a.3.3,0,0,0-.125.018Z" transform="translate(7.07 15.437)" fill="#7f7f7f"/>
  <path id="Path_3655" data-name="Path 3655" d="M15.09,19.5v.018A.162.162,0,0,0,15,19.5Z" transform="translate(11.875 15.437)" fill="#7f7f7f"/>
</svg>
