<svg xmlns="http://www.w3.org/2000/svg" width="110" height="110" viewBox="0 0 110 110"><defs><style>.a{fill:#0052b4;}.b{fill:#f0f0f0;}.c{fill:#d80027;}</style></defs><path class="a" d="M110,55A55,55,0,0,1,0,55C0,55.013,55,.006,55,0A55,55,0,0,1,110,55Z"/><path class="b" d="M255.966,0h0Z" transform="translate(-200.966)"/><path class="b" d="M255.315,255.462h.147v-.147Z" transform="translate(-200.462 -200.462)"/><path class="b" d="M55,28.7V0h-.009A55,55,0,0,0,0,55H28.7V38.842L44.854,55h10L55,54.854v-10L38.841,28.7H55Z" transform="translate(0 -0.001)"/><g transform="translate(7.174 7.174)"><path class="c" d="M54.043,33.391A55.263,55.263,0,0,0,33.391,54.043V81.217H47.739V47.739H81.217V33.391Z" transform="translate(-33.391 -33.391)"/><path class="c" d="M159.87,153.107l-19.541-19.54h-6.763l26.3,26.3h0Z" transform="translate(-112.044 -112.044)"/></g><g transform="translate(20.907 23.913)"><path class="b" d="M109.576,300.522l3.019,6.312,6.816-1.575-3.053,6.3,5.482,4.347-6.825,1.538.019,7-5.458-4.377-5.458,4.377.019-7L97.312,315.9l5.482-4.347-3.053-6.3,6.817,1.575Z" transform="translate(-97.312 -259.87)"/><path class="b" d="M360.875,356.174l1.509,3.156,3.408-.788-1.526,3.148,2.741,2.174-3.413.769.009,3.5-2.729-2.189-2.729,2.189.009-3.5-3.412-.769,2.741-2.174-1.526-3.148,3.408.788Z" transform="translate(-299.436 -303.565)"/><path class="b" d="M295.523,200.348l1.509,3.156,3.408-.788-1.526,3.148,2.741,2.174-3.412.769.009,3.5-2.729-2.189-2.729,2.189.009-3.5-3.412-.769,2.741-2.174-1.526-3.148,3.408.788Z" transform="translate(-248.124 -181.217)"/><path class="b" d="M360.875,111.3l1.509,3.156,3.408-.788-1.526,3.148,2.741,2.173-3.412.769.009,3.5-2.729-2.189-2.729,2.189.009-3.5-3.412-.769,2.741-2.173-1.526-3.148,3.408.788Z" transform="translate(-299.436 -111.304)"/><path class="b" d="M417.958,178.087l1.509,3.156,3.408-.788-1.526,3.148,2.741,2.174-3.413.769.01,3.5-2.729-2.188-2.729,2.188.009-3.5-3.412-.769,2.741-2.174-1.526-3.148,3.408.788Z" transform="translate(-344.255 -163.739)"/><path class="b" d="M381.172,256l1.187,3.654H386.2l-3.108,2.258,1.187,3.653-3.108-2.258-3.108,2.258,1.187-3.653-3.108-2.258h3.842Z" transform="translate(-316.238 -224.913)"/></g></svg>