<svg xmlns="http://www.w3.org/2000/svg" xmlns:xlink="http://www.w3.org/1999/xlink" width="110" height="110" viewBox="0 0 110 110"><defs><style>.a{fill:#fff;}.b{clip-path:url(#c);}.c{fill:#f0f0f0;}.d{fill:#d80027;}.e{filter:url(#a);}</style><filter id="a" x="-60" y="-22" width="230" height="230" filterUnits="userSpaceOnUse"><feOffset dy="38" input="SourceAlpha"/><feGaussianBlur stdDeviation="20" result="b"/><feFlood flood-opacity="0.059"/><feComposite operator="in" in2="b"/><feComposite in="SourceGraphic"/></filter><clipPath id="c"><g class="e" transform="matrix(1, 0, 0, 1, 0, 0)"><circle class="a" cx="55" cy="55" r="55" transform="translate(564 2587)"/></g></clipPath></defs><g class="b" transform="translate(-564 -2587)"><g transform="translate(564 2587)"><circle class="c" cx="55" cy="55" r="55"/><g transform="translate(0 5.457)"><path class="d" d="M120.043,55.695A55,55,0,0,0,88.956,6.152v99.085A55,55,0,0,0,120.043,55.695Z" transform="translate(-10.043 -6.152)"/><path class="d" d="M0,55.695a55,55,0,0,0,31.087,49.543V6.152A55,55,0,0,0,0,55.695Z" transform="translate(0 -6.152)"/><path class="d" d="M69.131,67.043,78.7,62.261,73.913,59.87V55.087L64.348,59.87,69.131,50.3H64.348L59.565,43.13,54.783,50.3H50l4.783,9.565-9.565-4.783V59.87l-4.782,2.391L50,67.043l-2.391,4.783h9.565V79h4.782V71.826h9.565Z" transform="translate(-4.565 -10.327)"/></g></g></g></svg>