<svg xmlns="http://www.w3.org/2000/svg" width="110" height="110" viewBox="0 0 110 110"><defs><style>.a{fill:#f0f0f0;}.b{fill:#0052b4;}.c{fill:#d80027;}</style></defs><circle class="a" cx="55" cy="55" r="55"/><g transform="translate(1.895 1.895)"><path class="b" d="M18.294,100.142A54.8,54.8,0,0,0,8.819,119.28H37.431Z" transform="translate(-8.819 -80.522)"/><path class="b" d="M398.617,119.28a54.8,54.8,0,0,0-9.475-19.137L370.005,119.28Z" transform="translate(-292.406 -80.523)"/><path class="b" d="M8.819,322.784a54.8,54.8,0,0,0,9.475,19.137l19.137-19.137Z" transform="translate(-8.819 -255.331)"/><path class="b" d="M341.919,18.294a54.8,54.8,0,0,0-19.137-9.475V37.431Z" transform="translate(-255.329 -8.819)"/><path class="b" d="M100.142,389.142a54.8,54.8,0,0,0,19.137,9.475V370.005Z" transform="translate(-80.522 -292.406)"/><path class="b" d="M119.279,8.819a54.8,54.8,0,0,0-19.137,9.475l19.137,19.137Z" transform="translate(-80.522 -8.819)"/><path class="b" d="M322.783,398.617a54.8,54.8,0,0,0,19.137-9.475l-19.137-19.137Z" transform="translate(-255.33 -292.406)"/><path class="b" d="M370.005,322.784l19.137,19.137a54.8,54.8,0,0,0,9.475-19.137Z" transform="translate(-292.406 -255.331)"/></g><path class="c" d="M109.534,47.826H62.174V.466a55.5,55.5,0,0,0-14.348,0v47.36H.466a55.5,55.5,0,0,0,0,14.348h47.36v47.361a55.505,55.505,0,0,0,14.348,0V62.174h47.361a55.505,55.505,0,0,0,0-14.348Z"/><path class="c" d="M322.783,322.783h0l24.543,24.543q1.693-1.693,3.233-3.531l-21.012-21.012h-6.764Z" transform="translate(-253.435 -253.435)"/><path class="c" d="M99.523,322.784h0L74.98,347.327q1.693,1.693,3.531,3.233l21.012-21.013v-6.763Z" transform="translate(-58.871 -253.436)"/><path class="c" d="M87.709,99.524h0L63.166,74.98q-1.693,1.693-3.233,3.531L80.945,99.523h6.763Z" transform="translate(-47.057 -58.871)"/><path class="c" d="M322.783,87.71h0l24.543-24.543q-1.693-1.693-3.531-3.233L322.783,80.946Z" transform="translate(-253.435 -47.058)"/></svg>