<svg xmlns="http://www.w3.org/2000/svg" xmlns:xlink="http://www.w3.org/1999/xlink" width="79" height="79" viewBox="0 0 79 79"><defs><filter id="a" x="-60" y="-22" width="199" height="199" filterUnits="userSpaceOnUse"><feOffset dy="38" input="SourceAlpha"/><feGaussianBlur stdDeviation="20" result="b"/><feFlood flood-opacity="0.059"/><feComposite operator="in" in2="b"/><feComposite in="SourceGraphic"/></filter><clipPath id="c"><g transform="matrix(1, 0, 0, 1, 0, 0)" filter="url(#a)"><circle cx="39.5" cy="39.5" r="39.5" transform="translate(564 2587)" fill="#20409a"/></g></clipPath></defs><g transform="translate(-194 -2097)"><g transform="translate(-370 -490)" clip-path="url(#c)"><g transform="translate(564 2587)"><circle cx="39.5" cy="39.5" r="39.5" fill="#20409a"/><g transform="translate(0 3.913)"><path d="M111.247,41.677A39.44,39.44,0,0,0,88.956,6.152V77.2A39.44,39.44,0,0,0,111.247,41.677Z" transform="translate(-32.372 -6.152)" fill="#20409a"/><path d="M0,41.677A39.44,39.44,0,0,0,22.291,77.2V6.152A39.44,39.44,0,0,0,0,41.677Z" transform="translate(0 -6.152)" fill="#20409a"/><path d="M61.011,60.277l6.859-3.429-3.429-1.715V51.7l-6.859,3.429,3.429-6.859H57.582L54.152,43.13l-3.429,5.144H47.294l3.429,6.859L43.864,51.7v3.429l-3.429,1.715,6.859,3.429-1.715,3.429h6.859v5.144h3.429V63.707h6.859Z" transform="translate(-14.715 -19.609)" fill="#20409a"/></g></g></g><path d="M33,2A31.009,31.009,0,0,0,20.934,61.565,31.009,31.009,0,0,0,45.066,4.435,30.8,30.8,0,0,0,33,2m0-2A33,33,0,1,1,0,33,33,33,0,0,1,33,0Z" transform="translate(201 2103)" fill="#fff"/><path d="M13.252,3.147a2,2,0,0,1,3.5,0l11.6,20.882A2,2,0,0,1,26.6,27H3.4a2,2,0,0,1-1.748-2.971Z" transform="translate(252 2121) rotate(90)" fill="#fff"/></g></svg>