<svg xmlns="http://www.w3.org/2000/svg" width="43.787" height="44.508" viewBox="0 0 43.787 44.508">
  <g id="around" transform="translate(-4.147 0)">
    <g id="Group_2438" data-name="Group 2438" transform="translate(4.147 0)">
      <g id="Group_2437" data-name="Group 2437" transform="translate(0 0)">
        <path id="Path_3677" data-name="Path 3677" d="M46.924,15.351A21.887,21.887,0,0,0,5.148,28.428l1.415-.443a20.4,20.4,0,1,1,2.354,5.008L7.674,33.8a21.963,21.963,0,0,0,18.406,9.97A21.88,21.88,0,0,0,46.924,15.351Z" transform="translate(-4.147 0)" fill="#fff"/>
      </g>
    </g>
    <g id="Group_2440" data-name="Group 2440" transform="translate(12.314 6.704)">
      <g id="Group_2439" data-name="Group 2439">
        <path id="Path_3678" data-name="Path 3678" d="M107.518,80.794l.426-1.421-7.414-2.224a.74.74,0,0,0-.737.186l-1.483,1.483a.742.742,0,0,0,.223,1.2l6.673,2.966.6-1.355L100.121,79.1l.406-.406Z" transform="translate(-98.092 -77.117)" fill="#fff"/>
      </g>
    </g>
    <g id="Group_2442" data-name="Group 2442" transform="translate(12.314 5.222)">
      <g id="Group_2441" data-name="Group 2441" transform="translate(0)">
        <path id="Path_3679" data-name="Path 3679" d="M114.407,60.813a.741.741,0,0,0-.741-.741h0a6.068,6.068,0,0,0-4.319,1.789l-6.287,6.287-2.559-.64a.741.741,0,0,0-.7.195l-1.483,1.483a.741.741,0,0,0,.142,1.16L102,72.475l2.129,3.548a.741.741,0,0,0,.545.354.727.727,0,0,0,.09.005.747.747,0,0,0,.525-.216l1.483-1.483a.743.743,0,0,0,.195-.7l-.639-2.556,6.387-6.324A6.117,6.117,0,0,0,114.407,60.813Zm-9.42,9.852a.742.742,0,0,0-.2.707l.64,2.559-.515.515-1.736-2.893a.738.738,0,0,0-.254-.254l-2.893-1.736.515-.515,2.559.64a.741.741,0,0,0,.7-.195l6.584-6.584a4.586,4.586,0,0,1,2.472-1.286,4.572,4.572,0,0,1-1.2,2.437Z" transform="translate(-98.094 -60.072)" fill="#fff"/>
      </g>
    </g>
    <g id="Group_2444" data-name="Group 2444" transform="translate(21.271 11.684)">
      <g id="Group_2443" data-name="Group 2443" transform="translate(0)">
        <path id="Path_3680" data-name="Path 3680" d="M206.978,141.914l-2.224-7.511-1.422.421,2.09,7.057-.45.4-2.472-5.734-1.362.587,2.877,6.673a.742.742,0,0,0,.519.43.759.759,0,0,0,.162.018.739.739,0,0,0,.49-.185l1.572-1.386A.742.742,0,0,0,206.978,141.914Z" transform="translate(-201.138 -134.403)" fill="#fff"/>
      </g>
    </g>
    <g id="Group_2446" data-name="Group 2446" transform="translate(4.183 18.085)">
      <g id="Group_2445" data-name="Group 2445" transform="translate(0)">
        <path id="Path_3681" data-name="Path 3681" d="M18.651,230.84c-5.28,2.5-9.423,2.826-11.362.887-3.362-3.362.289-13.128,8.492-22.72l-1.127-.964c-9,10.519-12.457,20.69-8.414,24.732a6.4,6.4,0,0,0,4.7,1.691,20.3,20.3,0,0,0,8.344-2.287Z" transform="translate(-4.565 -208.043)" fill="#fff"/>
      </g>
    </g>
    <g id="Group_2448" data-name="Group 2448" transform="translate(29.367 20.792)">
      <g id="Group_2447" data-name="Group 2447">
        <path id="Path_3682" data-name="Path 3682" d="M308.267,244.013a.742.742,0,0,0-.654-.391h-2.508l-2.02-4.039a.742.742,0,0,0-.664-.41h-7.414a.741.741,0,0,0-.741.741v5.931a.741.741,0,0,0,.741.741h2.224v8.156a.741.741,0,0,0,.741.741h3.707a.742.742,0,0,0,.525-.218l2.966-2.966a.738.738,0,0,0,.217-.524v-2.741l2.841-4.262A.741.741,0,0,0,308.267,244.013ZM304.03,248.4a.745.745,0,0,0-.125.412v2.659L301.374,254h-2.66v-8.156a.741.741,0,0,0-.741-.741h-2.224v-4.449h6.215l2.02,4.039a.742.742,0,0,0,.664.41h1.581Z" transform="translate(-294.267 -239.173)" fill="#fff"/>
      </g>
    </g>
    <g id="Group_2450" data-name="Group 2450" transform="translate(30.85 8.187)">
      <g id="Group_2449" data-name="Group 2449">
        <path id="Path_3683" data-name="Path 3683" d="M324.361,105.3l-2.752-4.816a.741.741,0,0,0-.644-.374h-4.449a.742.742,0,0,0-.617.33l-1.263,1.894H312.81V98.628h3.707a.739.739,0,0,0,.524-.217l2.748-2.748h3.4V94.179h-3.707a.739.739,0,0,0-.524.217l-2.748,2.748h-4.142a.741.741,0,0,0-.741.741v5.19a.741.741,0,0,0,.741.741h2.966a.742.742,0,0,0,.617-.33l1.263-1.894h3.622l2.752,4.816a.741.741,0,0,0,.644.374H326.9V105.3Z" transform="translate(-311.327 -94.179)" fill="#fff"/>
      </g>
    </g>
    <g id="Group_2452" data-name="Group 2452" transform="translate(14.539 24.499)">
      <g id="Group_2451" data-name="Group 2451">
        <path id="Path_3684" data-name="Path 3684" d="M134.808,284.043h-4.142l-2.007-2.007a.739.739,0,0,0-.524-.217h-3.707a.741.741,0,0,0-.741.741v5.19a.741.741,0,0,0,.741.741h2.966v7.414a.741.741,0,0,0,1.186.593l2.966-2.224a.742.742,0,0,0,.3-.593v-1.868l3.429-2.743a.742.742,0,0,0,.278-.579v-3.707A.741.741,0,0,0,134.808,284.043Zm-.741,4.093-3.429,2.743a.742.742,0,0,0-.278.579v1.854l-1.483,1.112V287.75a.741.741,0,0,0-.741-.741H125.17V283.3h2.659l2.007,2.007a.74.74,0,0,0,.524.217h3.707Z" transform="translate(-123.687 -281.819)" fill="#fff"/>
      </g>
    </g>
    <g id="Group_2454" data-name="Group 2454" transform="translate(4.9 11.894)">
      <g id="Group_2453" data-name="Group 2453" transform="translate(0)">
        <path id="Path_3685" data-name="Path 3685" d="M18.633,140.892l-2.224-3.707a.74.74,0,0,0-.635-.36h-.741v1.483h.322l1.711,2.851-1.815,1.815a.739.739,0,0,0-.217.524v2.224H12.808V147.2h2.966a.742.742,0,0,0,.741-.741V143.8l2.007-2.007A.742.742,0,0,0,18.633,140.892Z" transform="translate(-12.808 -136.825)" fill="#fff"/>
      </g>
    </g>
    <g id="Group_2456" data-name="Group 2456" transform="translate(17.914 0.773)">
      <g id="Group_2455" data-name="Group 2455">
        <path id="Path_3686" data-name="Path 3686" d="M171.748,8.889v.9l-2.4.6a.753.753,0,0,0-.231.1l-1.866,1.244-4.064-2.032-.664,1.326,4.449,2.224a.742.742,0,0,0,.742-.047l2.118-1.412,2.842-.71a.742.742,0,0,0,.562-.719V8.889Z" transform="translate(-162.519 -8.889)" fill="#fff"/>
      </g>
    </g>
  </g>
</svg>
