<svg xmlns="http://www.w3.org/2000/svg" width="19.334" height="19.334" viewBox="0 0 19.334 19.334"><defs><style>.a{fill:#fff;}</style></defs><g transform="translate(8.459 8.459)"><path class="a" d="M225.208,224c-.746,0-1.208.579-1.208,1.51s.463,1.51,1.208,1.51,1.208-.579,1.208-1.51S225.954,224,225.208,224Z" transform="translate(-224 -224)"/></g><path class="a" d="M9.667,0a9.667,9.667,0,1,0,9.667,9.667A9.668,9.668,0,0,0,9.667,0Zm6.042,10.271a2.406,2.406,0,0,1-4.238,1.571,2.264,2.264,0,0,1-1.8.846A2.468,2.468,0,0,1,7.25,9.969,2.468,2.468,0,0,1,9.667,7.25a2.332,2.332,0,0,1,1.26.363.6.6,0,0,1,1.156.242v2.417a1.208,1.208,0,0,0,2.417,0V9.92a4.979,4.979,0,0,0-4.187-5.044A4.837,4.837,0,0,0,8.525,14.37,4.871,4.871,0,0,0,11.808,14a.6.6,0,1,1,.538,1.084,5.991,5.991,0,0,1-2.674.627,6.318,6.318,0,0,1-1.415-.162,5.96,5.96,0,0,1-4.5-4.606,6.05,6.05,0,0,1,6.713-7.266A6.192,6.192,0,0,1,15.709,9.92Z"/></svg>