<svg xmlns="http://www.w3.org/2000/svg" width="61" height="61" viewBox="0 0 61 61">
  <g id="china" transform="translate(49 -141)">
    <circle id="Ellipse_16" data-name="Ellipse 16" cx="30.5" cy="30.5" r="30.5" transform="translate(-49 141)" fill="#d80027"/>
    <g id="Group_183" data-name="Group 183" transform="translate(-43.46 154.689)">
      <path id="Path_3590" data-name="Path 3590" d="M8.652,296.8l2.633,8.1H19.8l-6.886,5.016,2.633,8.1-6.9-5-6.9,5,2.645-8.1L-2.5,304.9H6.019Z" transform="translate(2.5 -291.927)" fill="#ffda44"/>
      <path id="Path_3591" data-name="Path 3591" d="M215.478,475.752l-2.013-2.478-2.979,1.156,1.728-2.681-2.013-2.49,3.086.822,1.739-2.681.167,3.193,3.1.822-2.99,1.144Z" transform="translate(-184.859 -442.202)" fill="#ffda44"/>
      <path id="Path_3592" data-name="Path 3592" d="M275.856,417.394l.953-3.05L274.2,412.5l3.193-.048.941-3.05,1.037,3.026,3.193-.036L280,414.3l1.025,3.026-2.609-1.847Z" transform="translate(-241.234 -391.112)" fill="#ffda44"/>
      <path id="Path_3593" data-name="Path 3593" d="M278.7,323.439l-1.406,2.871,2.288,2.228-3.157-.453-1.406,2.859-.548-3.145-3.169-.453,2.836-1.489-.548-3.157,2.288,2.228Z" transform="translate(-238.679 -314.741)" fill="#ffda44"/>
      <path id="Path_3594" data-name="Path 3594" d="M215.3,255.9l-.238,3.181,2.967,1.2-3.11.763-.226,3.193-1.68-2.716-3.11.762,2.061-2.442-1.692-2.7,2.967,1.2Z" transform="translate(-184.595 -255.9)" fill="#ffda44"/>
    </g>
  </g>
</svg>
