<svg xmlns="http://www.w3.org/2000/svg" width="84.088" height="73.557" viewBox="0 0 84.088 73.557">
  <g id="employees" transform="translate(0 -32.063)">
    <g id="Group_210" data-name="Group 210" transform="translate(45.901 86.199)">
      <g id="Group_209" data-name="Group 209">
        <path id="Path_3636" data-name="Path 3636" d="M285.32,361.686h-4.61a1.232,1.232,0,1,0,0,2.464h4.61a1.232,1.232,0,0,0,0-2.464Z" transform="translate(-279.479 -361.686)" fill="#188dcd"/>
      </g>
    </g>
    <g id="Group_212" data-name="Group 212" transform="translate(36.252 32.063)">
      <g id="Group_211" data-name="Group 211" transform="translate(0 0)">
        <path id="Path_3637" data-name="Path 3637" d="M263.352,73.015l-6.708-2.587-3.42-3.42a1.226,1.226,0,0,0-.792-.357V63.929a12.7,12.7,0,0,0,3.222-6.347,3.524,3.524,0,0,0,.864-.069,3.645,3.645,0,0,0,2.828-3.615V53a3.692,3.692,0,0,0-1.085-2.62c1.088-5.916.192-10.737-2.6-13.963-2.7-3.121-7.057-4.613-12.592-4.313a16.5,16.5,0,0,0-9.461,3.49,6.49,6.49,0,0,0-2.535.861c-1.368.821-3,2.545-3,6.1a30.758,30.758,0,0,0,.854,7.155,3.651,3.651,0,0,0-2.006,3.306V53.9a3.645,3.645,0,0,0,2.828,3.615,3.516,3.516,0,0,0,.864.069,12.7,12.7,0,0,0,3.222,6.347V66.65a1.226,1.226,0,0,0-.792.357l-3.42,3.42-6.708,2.587a8.155,8.155,0,0,0-1.647.862,1.232,1.232,0,1,0,1.384,2.038,5.7,5.7,0,0,1,1.149-.6l6.225-2.4,4.76,7.139a3.524,3.524,0,0,0,2.594,1.558c.118.012.236.017.352.017a3.516,3.516,0,0,0,1.734-.459l-1.021,23.168a1.232,1.232,0,0,0,1.176,1.285h.055a1.232,1.232,0,0,0,1.23-1.178l.948-21.505h2.557l.948,21.505a1.232,1.232,0,0,0,1.23,1.178h.055a1.232,1.232,0,0,0,1.176-1.285L246.8,81.167a3.515,3.515,0,0,0,1.733.459c.117,0,.235-.006.352-.017a3.524,3.524,0,0,0,2.594-1.558l4.76-7.139,6.225,2.4a5.669,5.669,0,0,1,2.216,1.544l-4.259,4.259a8.093,8.093,0,0,0-2.386,5.76V104.39a1.232,1.232,0,0,0,2.464,0V86.876a5.646,5.646,0,0,1,1.664-4.018L265.9,79.12a5.677,5.677,0,0,1,.2,1.722l-.954,23.5a1.232,1.232,0,0,0,1.181,1.281h.051a1.232,1.232,0,0,0,1.23-1.182l.954-23.5A8.144,8.144,0,0,0,263.352,73.015Zm-30.327-15.94a2.4,2.4,0,0,0-2.494-1.955,1.057,1.057,0,0,1-.287-.02,1.194,1.194,0,0,1-.859-1.2v-.885a1.168,1.168,0,0,1,.869-1.172,1.071,1.071,0,0,1,1.054.4,1.718,1.718,0,0,0,2.361.371,8.943,8.943,0,0,0,2.02-1.975,1.232,1.232,0,0,0-1.977-1.47,6.539,6.539,0,0,1-.959,1.036,3.524,3.524,0,0,0-1.336-.713,28.329,28.329,0,0,1-.88-6.942c0-1.887.582-3.212,1.728-3.94a4,4,0,0,1,1.841-.591,1.244,1.244,0,0,0,.85-.34,13.876,13.876,0,0,1,8.244-3.119c4.747-.256,8.411.942,10.6,3.466,2.2,2.544,2.937,6.45,2.141,11.338a5.339,5.339,0,0,0-1.051.073l-1.157-2.779a1.233,1.233,0,0,0-1.449-.718c-.114.03-11.49,2.914-16.259-3.025a1.232,1.232,0,1,0-1.921,1.543c4.871,6.064,14.535,4.745,17.752,4.1l.895,2.149a2.025,2.025,0,0,0,2.34,1.2,2.659,2.659,0,0,1,.922-.068A1.162,1.162,0,0,1,256.883,53v.9a1.194,1.194,0,0,1-.859,1.2,1.044,1.044,0,0,1-.287.02,2.4,2.4,0,0,0-2.494,1.955,10.279,10.279,0,0,1-20.219,0Zm5.464,21.774a1.073,1.073,0,0,1-1.651-.164l-4.795-7.192,1.928-1.928,7.361,6.441Zm3.475,1.627.075-1.693,1.1-1.1,1.1,1.1.075,1.693Zm1.17-6.167L236.3,68.328V65.97a12.748,12.748,0,0,0,13.67,0v2.357Zm6.3,4.376a1.073,1.073,0,0,1-1.652.163l-2.843-2.843,7.361-6.441,1.928,1.928Z" transform="translate(-220.729 -32.066)" fill="#188dcd"/>
      </g>
    </g>
    <g id="Group_214" data-name="Group 214" transform="translate(0 32.063)">
      <g id="Group_213" data-name="Group 213" transform="translate(0 0)">
        <path id="Path_3638" data-name="Path 3638" d="M39.063,79.467l-6.015-2.625L29.76,73.554a1.225,1.225,0,0,0-.792-.357V71.259A12.722,12.722,0,0,0,34.5,62.977a3.54,3.54,0,0,0,.972-.093,3.666,3.666,0,0,0,2.72-3.592v-.9a3.672,3.672,0,0,0-1.578-3.029,13.929,13.929,0,0,0,.426-3.412,14.362,14.362,0,0,0-6.916-12.179,7.986,7.986,0,0,0-8.144-7.711,7.986,7.986,0,0,0-8.144,7.711A14.362,14.362,0,0,0,6.914,51.953a13.929,13.929,0,0,0,.423,3.4,3.681,3.681,0,0,0-1.576,3.052v.885a3.666,3.666,0,0,0,2.72,3.592,3.532,3.532,0,0,0,.972.093,12.722,12.722,0,0,0,5.527,8.283V73.2a1.225,1.225,0,0,0-.792.357L10.9,76.842,4.887,79.467a8.2,8.2,0,0,0-4.88,7.811L.735,104.44a1.232,1.232,0,0,0,1.23,1.18h.053A1.232,1.232,0,0,0,3.2,104.335L2.469,87.174a5.672,5.672,0,0,1,.781-3.1l3.233,3.88a6.848,6.848,0,0,1,1.584,4.376v12.061a1.232,1.232,0,0,0,2.464,0V92.327a9.316,9.316,0,0,0-2.155-5.953L4.938,82.25a5.585,5.585,0,0,1,.935-.525l5.242-2.288,3.7,6.013a2.384,2.384,0,0,0,3.578.563l2.347-2v20.378a1.232,1.232,0,0,0,2.464,0V84.01l2.347,2a2.381,2.381,0,0,0,1.547.571,2.406,2.406,0,0,0,.372-.029,2.381,2.381,0,0,0,1.659-1.1l3.7-6.013,5.242,2.288a5.592,5.592,0,0,1,.935.525l-3.437,4.124a9.316,9.316,0,0,0-2.155,5.953v12.061a1.232,1.232,0,1,0,2.464,0V92.327a6.849,6.849,0,0,1,1.584-4.376l3.233-3.88a5.672,5.672,0,0,1,.781,3.1l-.727,17.162a1.232,1.232,0,0,0,1.179,1.283h.053a1.232,1.232,0,0,0,1.23-1.18l.727-17.161A8.2,8.2,0,0,0,39.063,79.467ZM21.975,34.527a5.644,5.644,0,0,1,5.485,3.937,15.621,15.621,0,0,0-10.971,0A5.643,5.643,0,0,1,21.975,34.527ZM11.866,62.469a2.4,2.4,0,0,0-2.494-1.955,1.064,1.064,0,0,1-.322-.027,1.2,1.2,0,0,1-.824-1.194v-.885a1.168,1.168,0,0,1,.869-1.172,1.071,1.071,0,0,1,1.054.4,1.718,1.718,0,0,0,2.361.371,8.935,8.935,0,0,0,1.994-1.94,1.232,1.232,0,0,0-1.97-1.479,6.53,6.53,0,0,1-.94,1.011,3.529,3.529,0,0,0-1.859-.818,11.472,11.472,0,0,1-.357-2.831c0-6.628,5.651-12.021,12.6-12.021s12.6,5.393,12.6,12.021a11.468,11.468,0,0,1-.355,2.826,5.65,5.65,0,0,0-.959.158l-.926-.761a2.365,2.365,0,0,0-1.644-.539c-1.811.107-11.083.352-15.84-5.342a1.232,1.232,0,1,0-1.89,1.58c2.346,2.808,5.788,4.707,10.228,5.643a30.149,30.149,0,0,0,7.606.58l1.445,1.188a1.229,1.229,0,0,0,1.4.114,2.718,2.718,0,0,1,1.214-.162,1.162,1.162,0,0,1,.874,1.156v.9a1.2,1.2,0,0,1-.824,1.194,1.053,1.053,0,0,1-.322.027,2.4,2.4,0,0,0-2.494,1.955,10.279,10.279,0,0,1-20.219,0Zm5,21.609-3.7-6.014,1.9-1.9,5.1,5.1ZM21.975,79.6l-4.53-4.53V72.519a12.734,12.734,0,0,0,9.061,0v2.548Zm5.108,4.481-3.294-2.811,5.1-5.1,1.9,1.9Z" transform="translate(0 -32.063)" fill="#188dcd"/>
      </g>
    </g>
    <g id="Group_216" data-name="Group 216" transform="translate(12.677 91.632)">
      <g id="Group_215" data-name="Group 215">
        <path id="Path_3639" data-name="Path 3639" d="M81.873,394.766H78.416a1.232,1.232,0,1,0,0,2.464h3.457a1.232,1.232,0,1,0,0-2.464Z" transform="translate(-77.184 -394.766)" fill="#188dcd"/>
      </g>
    </g>
  </g>
</svg>
