<svg xmlns="http://www.w3.org/2000/svg" width="11.354" height="21" viewBox="0 0 11.354 21"><defs><style>.a{fill:#fff;}</style></defs><g transform="translate(-22.077)"><path class="a" d="M33,0,30.28,0a4.782,4.782,0,0,0-5.037,5.168V7.551H22.505a.428.428,0,0,0-.428.428v3.452a.428.428,0,0,0,.428.428h2.738v8.712a.428.428,0,0,0,.428.428h3.572a.428.428,0,0,0,.428-.428V11.86h3.2a.428.428,0,0,0,.428-.428V7.979a.429.429,0,0,0-.428-.428h-3.2V5.531c0-.971.231-1.464,1.5-1.464H33a.428.428,0,0,0,.428-.428V.433A.428.428,0,0,0,33,0Z"/></g></svg>