<svg xmlns="http://www.w3.org/2000/svg" width="44.754" height="44.754" viewBox="0 0 44.754 44.754">
  <g id="family_1_" data-name="family (1)" transform="translate(-1 -1)">
    <path id="Path_3673" data-name="Path 3673" d="M18.624,27.8a3.72,3.72,0,0,0,3.535-2.548l.037-.111-1.369-.457-.037.112a2.283,2.283,0,0,1-4.331,0l-.037-.111-1.369.457.037.11A3.72,3.72,0,0,0,18.624,27.8Z" transform="translate(-3.909 -6.588)" fill="#fff"/>
    <path id="Path_3674" data-name="Path 3674" d="M30.624,50.8a3.72,3.72,0,0,0,3.535-2.548l.037-.111-1.369-.457-.037.112a2.283,2.283,0,0,1-4.331,0l-.037-.111-1.369.457.037.11A3.72,3.72,0,0,0,30.624,50.8Z" transform="translate(-7.247 -12.985)" fill="#fff"/>
    <path id="Path_3675" data-name="Path 3675" d="M46.826,23.684l-.037.111a2.283,2.283,0,0,1-4.331,0l-.037-.111-1.369.457.037.11a3.726,3.726,0,0,0,7.07,0l.037-.111Z" transform="translate(-11.141 -6.309)" fill="#fff"/>
    <path id="Path_3676" data-name="Path 3676" d="M44.483,28.47a7.546,7.546,0,0,0-1.616-1.746V12.673a8.8,8.8,0,0,0-8.786-8.786,5.61,5.61,0,0,0-3.78,1.45,6.5,6.5,0,0,0-5.223,3.074,7.34,7.34,0,0,0-1.7-2.654l-.739-.739A4.3,4.3,0,0,0,18.36,1H14.593A8.2,8.2,0,0,0,7.73,4.749l-.146.058a5.883,5.883,0,0,0-3.4,7.322l1.159,3.476a2.883,2.883,0,0,0,2.87,2.719h.043A6.5,6.5,0,0,0,11.106,23v2.685l-3.874.861A7.957,7.957,0,0,0,1,34.314v11.44H45.754V32.668a7.544,7.544,0,0,0-1.271-4.2Zm-.173,4.2v3.7H41.423V33.483H39.979V44.31H34.633A8.495,8.495,0,0,0,27.668,40a7.25,7.25,0,0,0,2.186-2.625l.108.108a3.584,3.584,0,0,0,2.552,1.057h3.414l-.938-2.813a4.326,4.326,0,0,0-2.745-2.741l.064-.193a8.715,8.715,0,0,0,.1-5.223,4.229,4.229,0,0,0,1.074.142,4.177,4.177,0,0,0,2.975-1.232l.173-.173,2.316.289a6.124,6.124,0,0,1,5.364,6.076ZM14.02,29.477c-.01.176-.027.351-.027.53,0,.032,0,.065,0,.1l-2.391.956-.949-3.8.941-.209ZM15.873,34.2h.286a7.2,7.2,0,0,0,.2,1.665l-.588.588a2.18,2.18,0,0,1-1.531.634H12.829l.3-.913A2.883,2.883,0,0,1,15.873,34.2Zm.286-2.331v.887h-.2l-.143-.429a7.351,7.351,0,0,1,6.974-9.677h1.177a7.353,7.353,0,0,1,6.975,9.676l-.144.429h-.2v-.23a3.631,3.631,0,0,0-3.31-3.6l-4-.333a1.478,1.478,0,0,1-.344-2.875l.662-.221-.457-1.369-.661.221a2.917,2.917,0,0,0-2,2.771c0,.08,0,.16.01.239l-1.2.343a4.35,4.35,0,0,0-3.141,4.164Zm5.053-17.881a1.444,1.444,0,1,1,0,2.887Zm-.043,4.331h.043a2.882,2.882,0,0,0,2.866-2.674l.022-.043v5.611c-.045,0-.089-.006-.134-.006H22.789a8.739,8.739,0,0,0-3.118.581,6.463,6.463,0,0,0,1.5-3.468Zm12.314,3.609a5.058,5.058,0,0,1-5.053-5.053V14.527a4.306,4.306,0,0,1,2.148-3.74,5.04,5.04,0,0,0,4.348,2.485h2.166a1.445,1.445,0,0,1,1.444,1.444v2.166a5.058,5.058,0,0,1-5.053,5.053Zm0,1.444a6.458,6.458,0,0,0,1.673-.227l.431,2.155-.149.149a2.83,2.83,0,0,1-3.908,0l-.132-.132c-.006-.009-.011-.018-.016-.027l.429-2.146a6.428,6.428,0,0,0,1.673.227ZM30.6,34.2h.286a2.883,2.883,0,0,1,2.739,1.974l.3.913H32.513a2.18,2.18,0,0,1-1.531-.634l-.588-.588a7.2,7.2,0,0,0,.2-1.665ZM17.6,31.874A2.9,2.9,0,0,1,19.7,29.1l1.279-.365a2.932,2.932,0,0,0,2.192,1.307l4,.333a2.178,2.178,0,0,1,1.987,2.158V34.2a5.775,5.775,0,0,1-11.549,0ZM27.2,41.423a7.06,7.06,0,0,1,5.709,2.887H13.848a7.06,7.06,0,0,1,5.709-2.887ZM30.6,6.775h.3l.211-.211a4.179,4.179,0,0,1,2.975-1.232,7.35,7.35,0,0,1,7.342,7.342V25.829a7.578,7.578,0,0,0-2.3-.67l-2.15-.269-.455-2.272a6.5,6.5,0,0,0,3.458-5.737V14.715a2.89,2.89,0,0,0-2.887-2.887H34.927a3.609,3.609,0,0,1-3.609-3.609H29.874a5.005,5.005,0,0,0,.152,1.221,5.745,5.745,0,0,0-3.039,5.087v2.354a6.5,6.5,0,0,0,3.458,5.738l-.24,1.2a8.777,8.777,0,0,0-4.662-2.455V11.828A5.058,5.058,0,0,1,30.6,6.775ZM21.4,8.332A4.28,4.28,0,0,0,22.38,6.8a5.934,5.934,0,0,1,1.091,6.832l-.009.018a2.871,2.871,0,0,0-2.251-1.1h-.583l-2.077-.831a1.5,1.5,0,0,1-.95-1.4,1.376,1.376,0,0,1,2.681-.435l.244.731,1.369-.457-.244-.731a2.828,2.828,0,0,0-.479-.868ZM8.121,6.147l.591-.237L8.837,5.7a6.747,6.747,0,0,1,5.756-3.258H18.36a2.851,2.851,0,0,1,2.016,4.867l-.383.383a2.794,2.794,0,0,0-3.785,2.132l-1.8.515a19.882,19.882,0,0,1-5.466.766.722.722,0,0,1,0-1.444h.722V8.218H8.94a2.16,2.16,0,0,0-.722,4.2v.133a2.876,2.876,0,0,0-2.072.885l-.588-1.762A4.44,4.44,0,0,1,8.121,6.147ZM6.775,15.437a1.445,1.445,0,0,1,1.444-1.444v2.887A1.445,1.445,0,0,1,6.775,15.437ZM9.662,17.6V12.524a21.33,21.33,0,0,0,5.14-.8l1.527-.436a2.935,2.935,0,0,0,1.687,1.767l1.752.7V17.6a5.053,5.053,0,1,1-10.106,0Zm5.053,6.5a6.458,6.458,0,0,0,1.817-.263,8.787,8.787,0,0,0-2.226,3.886l-1.756-1.756V23.72A6.451,6.451,0,0,0,14.715,24.1ZM4.352,29.708a6.5,6.5,0,0,1,3.193-1.753l1.7-.378,1.36,5.439L14.144,31.6a8.72,8.72,0,0,0,.3,1.187l.064.193a4.326,4.326,0,0,0-2.745,2.741l-.937,2.813h3.414a3.586,3.586,0,0,0,2.552-1.057l.108-.108A7.258,7.258,0,0,0,19.086,40a8.494,8.494,0,0,0-6.965,4.314H6.775V34.2H5.331v2.887H2.444V34.314a6.471,6.471,0,0,1,1.908-4.606ZM2.444,38.536H5.331V44.31H2.444ZM41.423,44.31v-6.5H44.31v6.5Z" fill="#fff"/>
  </g>
</svg>
