<svg xmlns="http://www.w3.org/2000/svg" width="58.561" height="73.992" viewBox="0 0 58.561 73.992">
  <g id="graduated" transform="translate(-53.387 0)">
    <path id="Path_3635" data-name="Path 3635" d="M104.027,48.34l-4.343-1.275-9.448-6.171V39.48A12.575,12.575,0,0,0,95.2,30.648,2.887,2.887,0,0,0,97.623,27.8V23.914c0-.015,0-.03,0-.045V18.944a2.137,2.137,0,0,0,.893-1.744V12.692l6.52-1.111a2.311,2.311,0,0,0,.313-4.481L83.366.109a2.3,2.3,0,0,0-1.4,0L59.984,7.1a2.319,2.319,0,0,0-.72,4.035V17.03H59.21a2.247,2.247,0,0,0-2.245,2.245V22.2l-1.449,8.505a2.413,2.413,0,0,0,2.378,2.817H62.8a2.413,2.413,0,0,0,2.378-2.818L63.73,22.2V19.275a2.247,2.247,0,0,0-2.245-2.245h-.054V11.775l5.39.918V17.2a2.139,2.139,0,0,0,.889,1.74l0,4.974V27.8a2.887,2.887,0,0,0,2.423,2.846,12.576,12.576,0,0,0,4.958,8.829V40.9l-9.446,6.17-4.339,1.274a11.021,11.021,0,0,0-7.922,10.581v3.23a1.084,1.084,0,1,0,2.168,0v-3.23a8.908,8.908,0,0,1,6.364-8.5l4.043-1.187,16.152,9.6a1.1,1.1,0,0,0,1.107,0l16.153-9.6,4.043,1.187a8.908,8.908,0,0,1,6.364,8.5V69.389a2.438,2.438,0,0,1-2.435,2.435h-4.777V67.152a1.084,1.084,0,0,0-2.168,0v4.672H64.93V67.152a1.084,1.084,0,1,0-2.168,0v4.672H57.99a2.438,2.438,0,0,1-2.435-2.435V67.218a1.084,1.084,0,0,0-2.168,0v2.171a4.608,4.608,0,0,0,4.6,4.6h49.356a4.608,4.608,0,0,0,4.6-4.6V58.921a11.022,11.022,0,0,0-7.921-10.581ZM62.8,31.355H57.895a.244.244,0,0,1-.241-.286l1.311-7.693h2.767l1.311,7.693a.244.244,0,0,1-.241.286ZM61.563,19.275v1.934H59.133V19.275a.077.077,0,0,1,.077-.077h2.275A.077.077,0,0,1,61.563,19.275ZM78.791,53.929l.431.663L68.157,48.017l7.024-4.588A22.767,22.767,0,0,0,78.791,53.929Zm-.008-4.679a27.87,27.87,0,0,0,7.768,0,20.7,20.7,0,0,1-1.824,3.5l-2.059,3.165-2.059-3.165a20.7,20.7,0,0,1-1.824-3.5Zm7.76,4.679a22.765,22.765,0,0,0,3.61-10.5l7.024,4.587L86.113,54.592Zm6.34-34.581h2.569V22.83H94.178a1.3,1.3,0,0,1-1.294-1.294V19.347ZM60.641,9.166,82.622,2.175a.142.142,0,0,1,.087,0L104.69,9.166a.121.121,0,0,1,.1.147c-.008.113-.072.124-.119.132L97.4,10.683l-2.728-.337a1.084,1.084,0,1,0-.266,2.151l1.938.24V17.18H68.989V12.736L80.2,11.348a20.077,20.077,0,0,1,4.922,0l4.245.525a1.084,1.084,0,0,0,.266-2.151L85.393,9.2a22.235,22.235,0,0,0-5.454,0L67.93,10.683,60.66,9.445c-.047-.008-.111-.019-.119-.132a.121.121,0,0,1,.1-.147ZM69.88,22.83V19.347h2.573v2.189a1.3,1.3,0,0,1-1.294,1.294H69.88Zm2.386,7.261a1.68,1.68,0,0,0-1.67-1.574.716.716,0,0,1-.715-.715V25h1.277a3.466,3.466,0,0,0,3.462-3.461V19.347h16.1v2.189A3.465,3.465,0,0,0,94.178,25h1.277v2.8a.716.716,0,0,1-.715.715,1.68,1.68,0,0,0-1.67,1.574,10.424,10.424,0,0,1-20.8,0Zm10.4,11.927a12.51,12.51,0,0,0,5.4-1.224v.687a20.657,20.657,0,0,1-.731,5.444,25.593,25.593,0,0,1-9.341,0,20.655,20.655,0,0,1-.731-5.444c0-.023,0-.045,0-.068,0,0,0-.009,0-.013v-.608A12.512,12.512,0,0,0,82.668,42.018Z" transform="translate(0 0)" fill="#188dcd"/>
  </g>
</svg>
