<svg id="india" xmlns="http://www.w3.org/2000/svg" width="61" height="61" viewBox="0 0 61 61">
  <circle id="Ellipse_19" data-name="Ellipse 19" cx="30.5" cy="30.5" r="30.5" fill="#f0f0f0"/>
  <path id="Path_3607" data-name="Path 3607" d="M52.876,0A30.5,30.5,0,0,0,25.4,17.239H80.349A30.5,30.5,0,0,0,52.876,0Z" transform="translate(-22.376)" fill="#ff9811"/>
  <path id="Path_3608" data-name="Path 3608" d="M52.876,384.543A30.5,30.5,0,0,0,80.349,367.3H25.4A30.5,30.5,0,0,0,52.876,384.543Z" transform="translate(-22.376 -323.543)" fill="#6da544"/>
  <circle id="Ellipse_20" data-name="Ellipse 20" cx="10.609" cy="10.609" r="10.609" transform="translate(19.891 19.891)" fill="#0052b4"/>
  <circle id="Ellipse_21" data-name="Ellipse 21" cx="8.63" cy="8.63" r="8.63" transform="translate(21.87 21.87)" fill="#f0f0f0"/>
  <path id="Path_3609" data-name="Path 3609" d="M202.406,187.326l1.7,3.849,4.182-.455-2.485,3.394,2.485,3.394-4.182-.455-1.7,3.849-1.7-3.849-4.182.455,2.485-3.394-2.485-3.394,4.182.455Z" transform="translate(-171.906 -163.615)" fill="#0052b4"/>
</svg>
