<svg xmlns="http://www.w3.org/2000/svg" width="68.529" height="73.492" viewBox="0 0 68.529 73.492">
  <g id="migration" transform="translate(-17.286)">
    <g id="Group_206" data-name="Group 206" transform="translate(17.286 0)">
      <path id="Path_3618" data-name="Path 3618" d="M81.1,51.614a34.174,34.174,0,0,0,4.711-17.349A34.213,34.213,0,0,0,51.551,0,34.585,34.585,0,0,0,17.286,34.265a34.129,34.129,0,0,0,5.565,18.726C29.07,62.5,40.342,68.916,51.832,68.526a34.274,34.274,0,0,0,10.21-1.643l3.994,4a8.911,8.911,0,0,0,12.6,0l4.567-4.565a8.912,8.912,0,0,0,0-12.6ZM59.714,17.551l-5.32-5.317a2.38,2.38,0,0,1-.7-1.69v-7.6a31.393,31.393,0,0,1,19.317,8.408l-3.74,3.74a5.283,5.283,0,0,0-1.544,3.72v2.881a5.215,5.215,0,0,0,1.541,3.716l4.472,4.474a2.4,2.4,0,0,1,.7,1.687v4.995a2.373,2.373,0,0,1-.7,1.686l-3,3-8.771-8.771L64.9,29.55a1.435,1.435,0,0,0-1.015-2.45H61.252V21.269a5.228,5.228,0,0,0-1.539-3.718ZM79,49.51l-6.228-6.233,3-3a5.227,5.227,0,0,0,1.539-3.715V31.57a5.293,5.293,0,0,0-1.54-3.717L71.3,23.378a2.364,2.364,0,0,1-.7-1.685V18.813a2.394,2.394,0,0,1,.7-1.687l3.716-3.716A31.414,31.414,0,0,1,79,49.51ZM21.248,26.033A31.54,31.54,0,0,1,32.907,9.007l5.725,5.725a2.157,2.157,0,0,1,.636,1.535v10.4a2.157,2.157,0,0,1-.636,1.536L36.14,30.7a2.169,2.169,0,0,1-3.07,0l-2.835-2.835a5.016,5.016,0,0,0-3.564-1.475H21.155q.046-.178.094-.355ZM46.911,60.107,49.8,63.048a2.044,2.044,0,0,1,.58,1.439l-.011,1.149a31.475,31.475,0,0,1-17.549-6.185l6.032-5.95a2.011,2.011,0,0,1,1.417-.58h.023l3.233.032A2.03,2.03,0,0,1,45.528,55l-.017,1.63a4.935,4.935,0,0,0,1.4,3.477Zm21.156,8.748L65,65.787a34.132,34.132,0,0,0,7.76-4.614l1.49,1.494a6.059,6.059,0,0,1,1.014,7.2A6.083,6.083,0,0,1,68.067,68.854Zm13.108-4.566-2.288,2.287a8.959,8.959,0,0,0-2.6-5.937L69.3,53.649a1.435,1.435,0,0,0-2.03,0h0a1.435,1.435,0,0,0,0,2.03l3.447,3.448-.02.015a31.391,31.391,0,0,1-17.467,6.471l.011-1.1h0a4.869,4.869,0,0,0-1.4-3.477L48.961,58.1a2.043,2.043,0,0,1-.58-1.439l.017-1.629a4.9,4.9,0,0,0-4.851-4.947l-3.231-.032h-.054a4.865,4.865,0,0,0-3.428,1.4l-6.254,6.168A31.409,31.409,0,0,1,20.556,29.259h6.115a2.191,2.191,0,0,1,1.536.636l2.833,2.833a5.04,5.04,0,0,0,7.13,0l2.492-2.492a5.009,5.009,0,0,0,1.477-3.566v-10.4A5.009,5.009,0,0,0,40.662,12.7L35.337,7.377a31.2,31.2,0,0,1,15.486-4.5v7.665a5.235,5.235,0,0,0,1.539,3.718l5.321,5.318a2.375,2.375,0,0,1,.7,1.688V27.1H48.956a1.435,1.435,0,0,0-1.435,1.435V43.461a1.448,1.448,0,0,0,2.451,1.015l3.051-3.051,5.32,5.321a1.436,1.436,0,0,0,2.03-2.03L54.038,38.38a1.449,1.449,0,0,0-2.031,0L50.392,40V29.971H60.416L58.928,31.46a1.45,1.45,0,0,0,0,2.03L81.175,55.745a6.1,6.1,0,0,1,0,8.543Z" transform="translate(-17.286 0)" fill="#188dcd"/>
      <path id="Path_3619" data-name="Path 3619" d="M332.664,339.73a1.434,1.434,0,1,0,1.567.774A1.448,1.448,0,0,0,332.664,339.73Z" transform="translate(-286.406 -290.942)" fill="#188dcd"/>
    </g>
  </g>
</svg>
