<svg xmlns="http://www.w3.org/2000/svg" width="42.5" height="44.508" viewBox="0 0 42.5 44.508">
  <g id="passport" transform="translate(-10.585)">
    <g id="Group_87" data-name="Group 87" transform="translate(15.139 12.726)">
      <g id="Group_86" data-name="Group 86" transform="translate(0)">
        <path id="Path_73" data-name="Path 73" d="M67.692,134.152a9.107,9.107,0,1,0,9.107,9.107A9.107,9.107,0,0,0,67.692,134.152Zm6.74,5.692H71.15a14.743,14.743,0,0,0-1.3-3.825A7.575,7.575,0,0,1,74.432,139.844Zm-4.463,3.415a16.134,16.134,0,0,1-.12,1.9H65.536a15.046,15.046,0,0,1,0-3.795H69.85A16.3,16.3,0,0,1,69.969,143.259Zm-2.5-7.567c.075,0,.145-.022.221-.022s.147.02.223.023a12.612,12.612,0,0,1,1.682,4.152H65.788A12.594,12.594,0,0,1,67.471,135.692Zm-1.932.327a14.787,14.787,0,0,0-1.3,3.825H60.952A7.576,7.576,0,0,1,65.539,136.019Zm-5.436,7.24a7.5,7.5,0,0,1,.269-1.9H64a17.905,17.905,0,0,0-.107,1.9,17.617,17.617,0,0,0,.11,1.9H60.372A7.5,7.5,0,0,1,60.1,143.259Zm.849,3.415h3.287a15.05,15.05,0,0,0,1.3,3.824A7.575,7.575,0,0,1,60.952,146.674Zm6.96,4.152c-.075,0-.145.022-.22.022s-.146-.02-.221-.022a12.7,12.7,0,0,1-1.682-4.152h3.805A12.677,12.677,0,0,1,67.913,150.826Zm1.935-.328a15.008,15.008,0,0,0,1.3-3.824h3.287A7.577,7.577,0,0,1,69.848,150.5Zm1.529-5.342a17.692,17.692,0,0,0,.109-1.9,17.909,17.909,0,0,0-.107-1.9h3.632a6.816,6.816,0,0,1,0,3.795Z" transform="translate(-58.585 -134.152)" fill="#fff"/>
      </g>
    </g>
    <g id="Group_89" data-name="Group 89" transform="translate(16.656 35.494)">
      <g id="Group_88" data-name="Group 88" transform="translate(0)">
        <rect id="Rectangle_41" data-name="Rectangle 41" width="15.179" height="1.518" fill="#fff"/>
      </g>
    </g>
    <g id="Group_91" data-name="Group 91" transform="translate(41.616 24.561)">
      <g id="Group_90" data-name="Group 90" transform="translate(0 0)">
        <rect id="Rectangle_42" data-name="Rectangle 42" width="3.036" height="1.518" transform="matrix(0.259, -0.966, 0.966, 0.259, 0, 2.932)" fill="#fff"/>
      </g>
    </g>
    <g id="Group_93" data-name="Group 93" transform="translate(38.08 30.422)">
      <g id="Group_92" data-name="Group 92" transform="translate(0 0)">
        <rect id="Rectangle_43" data-name="Rectangle 43" width="10.625" height="1.518" transform="matrix(0.259, -0.966, 0.966, 0.259, 0, 10.262)" fill="#fff"/>
      </g>
    </g>
    <g id="Group_95" data-name="Group 95" transform="translate(10.585)">
      <g id="Group_94" data-name="Group 94">
        <path id="Path_74" data-name="Path 74" d="M50.834,4.818,33.241.1a3.032,3.032,0,0,0-3.718,2.147L27.936,8.173H12.1a1.518,1.518,0,0,0-1.518,1.518V40.048A1.518,1.518,0,0,0,12.1,41.566H29.634L40.227,44.4a3.032,3.032,0,0,0,3.718-2.147L52.981,8.536A3.036,3.036,0,0,0,50.834,4.818ZM12.1,40.048V9.691H34.871a1.52,1.52,0,0,1,1.518,1.518V38.53a1.519,1.519,0,0,1-1.518,1.518Zm39.412-31.9L42.479,41.865a1.514,1.514,0,0,1-1.859,1.073L35.327,41.52a3.028,3.028,0,0,0,2.579-2.99V26.5l.777.208.786-2.932L38,23.38l-.1.363V11.681l1.549.415,1.8,5.869,1.257.337-.119-5.42,2.22.595.976,1.721.838.224-.144-2.4,1.323-2-.838-.224-1.705,1-2.22-.595L45.65,6.572l-1.257-.337L39.9,10.42l-2.368-.634a3.023,3.023,0,0,0-2.666-1.613H29.507l1.482-5.529a1.514,1.514,0,0,1,1.859-1.073L50.441,6.285a1.518,1.518,0,0,1,1.074,1.859Z" transform="translate(-10.585)" fill="#fff"/>
      </g>
    </g>
    <g id="Group_97" data-name="Group 97" transform="translate(41.618 20.549)">
      <g id="Group_96" data-name="Group 96" transform="translate(0 0)">
        <rect id="Rectangle_44" data-name="Rectangle 44" width="1.518" height="1.492" transform="translate(0 1.467) rotate(-75.179)" fill="#fff"/>
      </g>
    </g>
    <g id="Group_99" data-name="Group 99" transform="translate(44.499 21.314)">
      <g id="Group_98" data-name="Group 98" transform="translate(0)">
        <rect id="Rectangle_45" data-name="Rectangle 45" width="1.518" height="1.492" transform="translate(0 1.467) rotate(-75.179)" fill="#fff"/>
      </g>
    </g>
    <g id="Group_101" data-name="Group 101" transform="translate(38.738 19.786)">
      <g id="Group_100" data-name="Group 100" transform="translate(0)">
        <rect id="Rectangle_46" data-name="Rectangle 46" width="1.518" height="1.492" transform="translate(0 1.467) rotate(-75.179)" fill="#fff"/>
      </g>
    </g>
  </g>
</svg>
