<svg xmlns="http://www.w3.org/2000/svg" width="19.334" height="19.334" viewBox="0 0 19.334 19.334"><defs><style>.a{fill:#fff;}</style></defs><g transform="translate(0 0)"><g transform="translate(0 0)"><path class="a" d="M16.5,2.83a9.667,9.667,0,1,0,2.832,6.835A9.667,9.667,0,0,0,16.5,2.83ZM14.64,13.466h0v0l-.49.487a2.578,2.578,0,0,1-2.433.7,8.566,8.566,0,0,1-2.488-1.115,11.494,11.494,0,0,1-1.962-1.582A11.582,11.582,0,0,1,5.8,10.171a9.022,9.022,0,0,1-1.1-2.23,2.578,2.578,0,0,1,.644-2.633l.574-.574a.409.409,0,0,1,.579,0h0L8.307,6.545a.409.409,0,0,1,0,.579h0L7.244,8.189a.867.867,0,0,0-.09,1.128A12.436,12.436,0,0,0,8.426,10.8,12.36,12.36,0,0,0,10.1,12.21a.873.873,0,0,0,1.115-.1l1.028-1.044a.409.409,0,0,1,.579,0h0l1.814,1.817A.409.409,0,0,1,14.64,13.466Z" transform="translate(0 0)"/></g></g></svg>