<svg xmlns="http://www.w3.org/2000/svg" width="62.738" height="73.992" viewBox="0 0 62.738 73.992"><g transform="translate(-38.937)"><g transform="translate(38.937)"><path d="M85.76,0H43.272a4.34,4.34,0,0,0-4.335,4.335V19.076a1.445,1.445,0,0,0,2.89,0V4.335A1.447,1.447,0,0,1,43.272,2.89H85.76a1.447,1.447,0,0,1,1.445,1.445V58.1a1.447,1.447,0,0,1-1.445,1.445H43.272A1.447,1.447,0,0,1,41.827,58.1V31.264a1.445,1.445,0,0,0-2.89,0V58.1a4.34,4.34,0,0,0,4.335,4.335H85.76A4.34,4.34,0,0,0,90.1,58.1V4.335A4.34,4.34,0,0,0,85.76,0Z" transform="translate(-38.937)" fill="#188dcd"/></g><g transform="translate(38.937 24.102)"><path d="M41.4,167.2a1.446,1.446,0,1,0,.424,1.022A1.454,1.454,0,0,0,41.4,167.2Z" transform="translate(-38.937 -166.78)" fill="#188dcd"/></g><g transform="translate(44.726 65.33)"><path d="M81.463,452.483a1.444,1.444,0,1,0,.423,1.022A1.453,1.453,0,0,0,81.463,452.483Z" transform="translate(-78.996 -452.06)" fill="#188dcd"/></g><g transform="translate(50.507 5.79)"><path d="M162.933,40.063a1.445,1.445,0,0,0-1.445,1.445v56.65a1.447,1.447,0,0,1-1.445,1.445h-39.6a1.445,1.445,0,0,0,0,2.89h39.6a4.34,4.34,0,0,0,4.335-4.335V41.508A1.445,1.445,0,0,0,162.933,40.063Z" transform="translate(-119 -40.063)" fill="#188dcd"/></g><g transform="translate(50.516 11.561)"><path d="M168.776,80a1.445,1.445,0,0,0-1.445,1.445V138.1a1.447,1.447,0,0,1-1.445,1.445H120.508a1.445,1.445,0,0,0,0,2.89h45.378a4.34,4.34,0,0,0,4.335-4.335V81.445A1.445,1.445,0,0,0,168.776,80Z" transform="translate(-119.063 -80)" fill="#188dcd"/></g><g transform="translate(47.03 10.694)"><path d="M110.256,74H96.382a1.445,1.445,0,0,0-1.445,1.445V89.319a1.445,1.445,0,0,0,1.445,1.445h13.874a1.445,1.445,0,0,0,1.445-1.445V75.445A1.445,1.445,0,0,0,110.256,74Zm-1.445,13.874H97.827V76.89h10.983Z" transform="translate(-94.937 -74)" fill="#188dcd"/></g><g transform="translate(47.56 33.596)"><path d="M108.742,232.9a1.446,1.446,0,0,0-2.044,0l-3.842,3.842-1.786-1.786A1.445,1.445,0,1,0,99.027,237l2.808,2.808a1.445,1.445,0,0,0,2.044,0l4.864-4.864A1.445,1.445,0,0,0,108.742,232.9Z" transform="translate(-98.603 -232.474)" fill="#188dcd"/></g><g transform="translate(63.071 35.984)"><path d="M224.242,249h-16.86a1.445,1.445,0,0,0,0,2.89h16.86a1.445,1.445,0,0,0,0-2.89Z" transform="translate(-205.937 -249)" fill="#188dcd"/></g><g transform="translate(68.996 10.694)"><path d="M258.5,74H248.382a1.445,1.445,0,0,0,0,2.89H258.5a1.445,1.445,0,0,0,0-2.89Z" transform="translate(-246.937 -74)" fill="#188dcd"/></g><g transform="translate(68.996 17.631)"><path d="M258.5,122H248.382a1.445,1.445,0,0,0,0,2.89H258.5a1.445,1.445,0,0,0,0-2.89Z" transform="translate(-246.937 -122)" fill="#188dcd"/></g><g transform="translate(68.996 24.568)"><path d="M258.5,170H248.382a1.445,1.445,0,0,0,0,2.89H258.5a1.445,1.445,0,0,0,0-2.89Z" transform="translate(-246.937 -170)" fill="#188dcd"/></g><g transform="translate(47.56 44.632)"><path d="M108.742,309.264a1.446,1.446,0,0,0-2.044,0l-3.842,3.842-1.786-1.786a1.445,1.445,0,0,0-2.044,2.044l2.808,2.808a1.445,1.445,0,0,0,2.044,0l4.864-4.864A1.445,1.445,0,0,0,108.742,309.264Z" transform="translate(-98.603 -308.841)" fill="#188dcd"/></g><g transform="translate(63.071 46.968)"><path d="M224.242,325h-16.86a1.445,1.445,0,1,0,0,2.89h16.86a1.445,1.445,0,1,0,0-2.89Z" transform="translate(-205.937 -325)" fill="#188dcd"/></g></g></svg>