<svg xmlns="http://www.w3.org/2000/svg" width="25.429" height="20.661" viewBox="0 0 25.429 20.661"><defs><style>.a{fill:#fff;}</style></defs><g transform="translate(0 -48)"><g transform="translate(0 48)"><path class="a" d="M25.429,50.446a10.869,10.869,0,0,1-3,.823,5.184,5.184,0,0,0,2.293-2.881,10.418,10.418,0,0,1-3.306,1.262,5.213,5.213,0,0,0-9.018,3.565,5.368,5.368,0,0,0,.121,1.189A14.756,14.756,0,0,1,1.77,48.95a5.215,5.215,0,0,0,1.6,6.967,5.148,5.148,0,0,1-2.355-.642v.057a5.237,5.237,0,0,0,4.177,5.122,5.2,5.2,0,0,1-1.367.172,4.609,4.609,0,0,1-.987-.089A5.263,5.263,0,0,0,7.711,64.17a10.475,10.475,0,0,1-6.464,2.223A9.762,9.762,0,0,1,0,66.321a14.676,14.676,0,0,0,8,2.339A14.735,14.735,0,0,0,22.835,53.826c0-.23-.008-.453-.019-.674A10.4,10.4,0,0,0,25.429,50.446Z" transform="translate(0 -48)"/></g></g></svg>