<svg id="university_1_" data-name="university (1)" xmlns="http://www.w3.org/2000/svg" width="73.992" height="73.992" viewBox="0 0 73.992 73.992">
  <g id="Group_208" data-name="Group 208">
    <g id="Group_207" data-name="Group 207">
      <path id="Path_3620" data-name="Path 3620" d="M187.733,264.632a1.234,1.234,0,0,0,1.233,1.233H193.9a1.234,1.234,0,0,0,1.233-1.233v-7.4A1.234,1.234,0,0,0,193.9,256h-4.933a1.234,1.234,0,0,0-1.233,1.233v7.4Zm2.466-6.166h2.466V263.4H190.2Z" transform="translate(-160.603 -219.004)" fill="#188dcd"/>
      <path id="Path_3621" data-name="Path 3621" d="M188.967,163.466H193.9a1.234,1.234,0,0,0,1.233-1.233v-7.4A1.234,1.234,0,0,0,193.9,153.6h-4.933a1.234,1.234,0,0,0-1.233,1.233v7.4A1.233,1.233,0,0,0,188.967,163.466Zm1.233-7.4h2.466V161H190.2Z" transform="translate(-160.604 -131.403)" fill="#188dcd"/>
      <path id="Path_3622" data-name="Path 3622" d="M121.335,23.254,139.2,12.537,157.06,23.254a1.233,1.233,0,0,0,1.27-2.114l-17.9-10.74V2.466H146.6V4.933h-3.7a1.233,1.233,0,1,0,0,2.466h4.933a1.234,1.234,0,0,0,1.233-1.233V1.233A1.234,1.234,0,0,0,147.83,0H139.2a1.234,1.234,0,0,0-1.233,1.233V10.4l-17.9,10.74a1.233,1.233,0,0,0,1.27,2.114Z" transform="translate(-102.202)" fill="#188dcd"/>
      <path id="Path_3623" data-name="Path 3623" d="M57.366,265.866a1.234,1.234,0,0,0,1.233-1.233v-7.4A1.234,1.234,0,0,0,57.366,256H52.433a1.234,1.234,0,0,0-1.233,1.233V259.7a1.233,1.233,0,1,0,2.466,0v-1.233h2.466v6.166A1.234,1.234,0,0,0,57.366,265.866Z" transform="translate(-43.801 -219.005)" fill="#188dcd"/>
      <path id="Path_3624" data-name="Path 3624" d="M139,216.2V180.433a1.233,1.233,0,1,0-2.466,0V216.2a1.233,1.233,0,1,0,2.466,0Z" transform="translate(-116.803 -153.303)" fill="#188dcd"/>
      <path id="Path_3625" data-name="Path 3625" d="M103.633,375.667h41.929a1.233,1.233,0,1,0,0-2.466h-11.1V360.868H135.7a1.233,1.233,0,0,0,0-2.466H113.5a1.233,1.233,0,0,0,0,2.466h1.233V373.2h-11.1a1.233,1.233,0,0,0,0,2.466Zm22.2-7.4a1.233,1.233,0,0,0,0-2.466v-4.933H132V373.2h-6.166Zm-8.632-7.4h6.166V365.8a1.233,1.233,0,1,0,0,2.466V373.2H117.2Z" transform="translate(-87.602 -306.608)" fill="#188dcd"/>
      <path id="Path_3626" data-name="Path 3626" d="M415.767,366.933h-4.933a1.234,1.234,0,0,0-1.233,1.233v7.4a1.234,1.234,0,0,0,1.233,1.233h4.933A1.234,1.234,0,0,0,417,375.565v-7.4A1.234,1.234,0,0,0,415.767,366.933Zm-1.233,7.4h-2.466V369.4h2.466Z" transform="translate(-350.408 -313.906)" fill="#188dcd"/>
      <path id="Path_3627" data-name="Path 3627" d="M415.767,264.533h-4.933a1.234,1.234,0,0,0-1.233,1.233v7.4a1.234,1.234,0,0,0,1.233,1.233h4.933A1.234,1.234,0,0,0,417,273.165v-7.4A1.234,1.234,0,0,0,415.767,264.533Zm-1.233,7.4h-2.466V267h2.466Z" transform="translate(-350.408 -226.304)" fill="#188dcd"/>
      <path id="Path_3628" data-name="Path 3628" d="M121.294,494.933H69.5a1.233,1.233,0,0,0,0,2.466h51.794a1.233,1.233,0,0,0,0-2.466Z" transform="translate(-58.401 -423.408)" fill="#188dcd"/>
      <path id="Path_3629" data-name="Path 3629" d="M408.566,187.733a1.234,1.234,0,0,0-1.233,1.233V190.2H393.767a1.233,1.233,0,1,0,0,2.466h13.565v40.7a1.233,1.233,0,0,0,2.466,0v-44.4A1.234,1.234,0,0,0,408.566,187.733Z" transform="translate(-335.807 -160.603)" fill="#188dcd"/>
      <path id="Path_3630" data-name="Path 3630" d="M273.067,264.632a1.234,1.234,0,0,0,1.233,1.233h4.933a1.234,1.234,0,0,0,1.233-1.233v-7.4A1.234,1.234,0,0,0,279.233,256H274.3a1.234,1.234,0,0,0-1.233,1.233Zm2.466-6.166H278V263.4h-2.466Z" transform="translate(-233.605 -219.004)" fill="#188dcd"/>
      <path id="Path_3631" data-name="Path 3631" d="M12.332,323.232c0-.16-.07-16.031-6.166-16.031S0,323.071,0,323.232a6.177,6.177,0,0,0,4.933,6.041v6.291a1.233,1.233,0,1,0,2.466,0v-6.291A6.177,6.177,0,0,0,12.332,323.232Zm-6.166,3.7a3.7,3.7,0,0,1-3.7-3.7c0-6.144,1.65-13.565,3.7-13.565s3.7,7.421,3.7,13.565A3.7,3.7,0,0,1,6.166,326.931Z" transform="translate(0 -262.805)" fill="#188dcd"/>
      <path id="Path_3632" data-name="Path 3632" d="M360.867,208.9v-37a1.233,1.233,0,1,0-2.466,0v37a1.233,1.233,0,0,0,2.466,0Z" transform="translate(-306.607 -146.003)" fill="#188dcd"/>
      <path id="Path_3633" data-name="Path 3633" d="M274.3,163.466h4.933a1.234,1.234,0,0,0,1.233-1.233v-7.4a1.234,1.234,0,0,0-1.233-1.233H274.3a1.234,1.234,0,0,0-1.233,1.233v7.4A1.234,1.234,0,0,0,274.3,163.466Zm1.233-7.4H278V161h-2.466Z" transform="translate(-233.605 -131.403)" fill="#188dcd"/>
      <path id="Path_3634" data-name="Path 3634" d="M1.233,203.766a1.234,1.234,0,0,0,1.233-1.233v-9.866H16.031a1.233,1.233,0,1,0,0-2.466H2.466v-1.233a1.233,1.233,0,0,0-2.466,0v13.565A1.234,1.234,0,0,0,1.233,203.766Z" transform="translate(0 -160.604)" fill="#188dcd"/>
    </g>
  </g>
</svg>
