<svg xmlns="http://www.w3.org/2000/svg" width="73.786" height="73.558" viewBox="0 0 73.786 73.558"><g transform="translate(0 0.001)"><path d="M73.632,18.172a1.235,1.235,0,0,0-.741-.59L12.4.048A1.234,1.234,0,0,0,10.876.89L7.71,11.811H3.7a3.7,3.7,0,0,0-3.7,3.7V69.852a3.7,3.7,0,0,0,3.7,3.7H35.812a3.7,3.7,0,0,0,3.7-3.7V45.194l23.408,6.784a1.2,1.2,0,0,0,.343.049,1.234,1.234,0,0,0,1.185-.891l9.284-32.024a1.234,1.234,0,0,0-.1-.94ZM37.047,69.852a1.235,1.235,0,0,1-1.235,1.235H3.7A1.235,1.235,0,0,1,2.47,69.852V15.516A1.235,1.235,0,0,1,3.7,14.281H35.812a1.235,1.235,0,0,1,1.235,1.235ZM47.092,24.927l-3.728-5.953c-.789-1.435-.759-4.164-.259-4.439s2.822,1.156,3.582,2.531l3.071,6.4a1.235,1.235,0,0,0,1.389.668l11.2-2.565,1.4,2.534L53.427,28a1.236,1.236,0,0,0-.677,1.691l1.976,4.122A1.235,1.235,0,0,0,56,34.5l5.842-.777.348.634-6.84,1.807a1.224,1.224,0,0,0-.525.289l-5.186,4.816-.349-.633,3.78-4.52a1.235,1.235,0,0,0,.1-1.447l-2.418-3.883a1.234,1.234,0,0,0-.821-.56,1.219,1.219,0,0,0-.968.229l-8.81,6.629-.639-1.161V33.8l7.4-7.341a1.235,1.235,0,0,0,.177-1.531ZM62.425,49.263,39.517,42.621V40.134a1.233,1.233,0,0,0,.988-.221l8.872-6.676,1.235,1.976-3.746,4.48a1.235,1.235,0,0,0-.135,1.388l1.518,2.757a1.235,1.235,0,0,0,.886.623,1.183,1.183,0,0,0,.2.016,1.235,1.235,0,0,0,.841-.33l6.118-5.681,8.07-2.132a1.235,1.235,0,0,0,.765-1.789L63.6,31.791a1.235,1.235,0,0,0-1.235-.629l-5.79.771-1.009-2.1,10.38-3.926a1.234,1.234,0,0,0,.646-1.747l-2.531-4.6a1.235,1.235,0,0,0-1.359-.607L51.557,21.5l-2.676-5.57c-1.073-1.949-4.625-4.856-6.967-3.564s-1.787,5.843-.679,7.853L44.474,25.4l-4.957,4.924v-14.8a3.7,3.7,0,0,0-3.7-3.7H10.281L12.9,2.763,71.022,19.611Zm0,0" transform="translate(0 0)" fill="#188dcd"/><path d="M49.9,116.913c-.032-.008-.06-.02-.093-.025a14.819,14.819,0,1,0,.15,28.846c.031-.01.063-.013.093-.025a14.8,14.8,0,0,0-.15-28.8Zm6.488,7.008h-2.57a14.678,14.678,0,0,0-4-4.483,12.368,12.368,0,0,1,6.566,4.483Zm1.438,12.385a1.134,1.134,0,0,0-.179-.036H54.956a14.892,14.892,0,0,0,.787-3.7h3.08A12.188,12.188,0,0,1,57.83,136.306Zm-22.586,0a12.188,12.188,0,0,1-.993-3.741h3.7a14.863,14.863,0,0,0,.786,3.7H35.422a1.136,1.136,0,0,0-.179.036Zm0-9.951a1.207,1.207,0,0,0,.179.036h3.312a14.892,14.892,0,0,0-.787,3.7h-3.7a12.185,12.185,0,0,1,.993-3.74Zm18,3.74H47.771v-3.7H52.3a12.33,12.33,0,0,1,.94,3.7Zm-5.472-6.175v-2.883a12.3,12.3,0,0,1,3.067,2.883Zm-2.47-2.44v2.44H42.858A12.346,12.346,0,0,1,45.3,121.48Zm0,4.91v3.7H40.447a12.307,12.307,0,0,1,.942-3.7Zm-4.855,6.175H45.3v3.7H41.387a12.321,12.321,0,0,1-.94-3.7ZM45.3,138.74v2.448a12.238,12.238,0,0,1-2.45-2.448Zm2.47,2.881V138.74h3.061A12.387,12.387,0,0,1,47.771,141.621Zm0-5.351v-3.7h5.472a12.307,12.307,0,0,1-.942,3.7ZM58.823,130.1h-3.08a14.863,14.863,0,0,0-.786-3.7H57.65a1.208,1.208,0,0,0,.179-.036,12.185,12.185,0,0,1,.993,3.74ZM43.779,119.3h.012c.065.014.124.037.189.052a14.733,14.733,0,0,0-4.105,4.566H36.681a12.358,12.358,0,0,1,7.1-4.618Zm-7.1,19.437h3.187a14.679,14.679,0,0,0,4.1,4.562c-.063.015-.124.037-.183.051l-.012.007A12.359,12.359,0,0,1,36.681,138.74Zm13.129,4.486a14.734,14.734,0,0,0,4.005-4.486h2.577A12.363,12.363,0,0,1,49.81,143.225Zm0,0" transform="translate(-26.778 -98.525)" fill="#188dcd"/><path d="M60.4,356.523H33.235a1.235,1.235,0,0,0,0,2.47H60.4a1.235,1.235,0,0,0,0-2.47Zm0,0" transform="translate(-27.06 -301.49)" fill="#188dcd"/><path d="M188.94,380.523h-3.7a1.235,1.235,0,1,0,0,2.47h3.7a1.235,1.235,0,1,0,0-2.47Zm0,0" transform="translate(-155.597 -321.785)" fill="#188dcd"/><path d="M52.993,380.523H33.235a1.235,1.235,0,0,0,0,2.47H52.993a1.235,1.235,0,0,0,0-2.47Zm0,0" transform="translate(-27.06 -321.785)" fill="#188dcd"/><path d="M50.524,404.523H33.235a1.235,1.235,0,1,0,0,2.47H50.524a1.235,1.235,0,1,0,0-2.47Zm0,0" transform="translate(-27.06 -342.081)" fill="#188dcd"/><path d="M30.175,102.993a1.235,1.235,0,1,0,0-2.47h-4.94a1.235,1.235,0,1,0,0,2.47Zm0,0" transform="translate(-20.295 -85.007)" fill="#188dcd"/></g></svg>